<svg width="16" height="16" viewBox="0 0 16 16" fill="none" xmlns="http://www.w3.org/2000/svg">
<g clip-path="url(#clip0_2694_5218)">
<path d="M15.6375 6.37224L14.3109 5.04488C14.1168 4.85771 13.8681 4.73738 13.6008 4.70142C13.3336 4.66547 13.0619 4.71575 12.8252 4.84496C12.5916 4.96542 12.3257 5.00851 12.066 4.96798C11.8063 4.92746 11.5662 4.80543 11.3803 4.61952C11.1945 4.43361 11.0726 4.19344 11.0322 3.9337C10.9918 3.67396 11.035 3.40809 11.1555 3.17451C11.2843 2.93768 11.3343 2.66597 11.2982 2.3988C11.2622 2.13164 11.1419 1.88291 10.9549 1.68872L9.62764 0.362075C9.39493 0.130179 9.07981 -3.05176e-05 8.75129 -3.05176e-05C8.42278 -3.05176e-05 8.10765 0.130179 7.87495 0.362075L0.36273 7.87461C0.130537 8.10716 0.00012207 8.42236 0.00012207 8.75099C0.00012207 9.07963 0.130537 9.39482 0.36273 9.62738L1.68931 10.9547C1.8834 11.1419 2.13218 11.2622 2.39941 11.2982C2.66664 11.3342 2.93836 11.2839 3.17502 11.1546C3.40865 11.0342 3.67452 10.9911 3.93423 11.0316C4.19394 11.0721 4.43405 11.1942 4.61987 11.3801C4.8057 11.566 4.92762 11.8062 4.96804 12.0659C5.00845 12.3256 4.96526 12.5915 4.8447 12.8251C4.7159 13.0619 4.6659 13.3336 4.70197 13.6008C4.73804 13.868 4.8583 14.1167 5.04529 14.3109L6.37259 15.6375C6.60518 15.8696 6.92035 16 7.24893 16C7.57751 16 7.89268 15.8696 8.12527 15.6375L15.6375 8.12501C15.8697 7.89245 16.0001 7.57725 16.0001 7.24862C16.0001 6.91999 15.8697 6.60479 15.6375 6.37224ZM5.99688 8.20727C5.8568 8.20727 5.71986 8.16573 5.60339 8.0879C5.48691 8.01008 5.39613 7.89945 5.34252 7.77003C5.28892 7.6406 5.27489 7.49819 5.30222 7.36079C5.32955 7.22339 5.397 7.09719 5.49606 6.99813C5.59511 6.89907 5.72131 6.83161 5.8587 6.80428C5.99609 6.77695 6.1385 6.79098 6.26792 6.84459C6.39734 6.8982 6.50796 6.98898 6.58578 7.10546C6.66361 7.22194 6.70515 7.35888 6.70515 7.49897C6.70514 7.68682 6.63051 7.86698 6.49769 7.99981C6.36487 8.13264 6.18472 8.20727 5.99688 8.20727ZM8.53132 10.1247C8.53132 10.2656 8.47536 10.4007 8.37574 10.5003C8.27612 10.6 8.14101 10.6559 8.00012 10.6559C7.85924 10.6559 7.72413 10.6 7.62451 10.5003C7.52489 10.4007 7.46892 10.2656 7.46892 10.1247V5.8749C7.46892 5.73401 7.52489 5.59889 7.62451 5.49927C7.72413 5.39964 7.85924 5.34367 8.00012 5.34367C8.14101 5.34367 8.27612 5.39964 8.37574 5.49927C8.47536 5.59889 8.53132 5.73401 8.53132 5.8749V10.1247ZM10.0034 9.20894C9.86328 9.20894 9.72635 9.1674 9.60987 9.08957C9.4934 9.01174 9.40262 8.90112 9.34901 8.77169C9.2954 8.64227 9.28138 8.49985 9.30871 8.36246C9.33604 8.22506 9.40349 8.09885 9.50254 7.99979C9.6016 7.90074 9.7278 7.83328 9.86519 7.80595C10.0026 7.77862 10.145 7.79264 10.2744 7.84625C10.4038 7.89986 10.5144 7.99065 10.5923 8.10713C10.6701 8.22361 10.7116 8.36055 10.7116 8.50064C10.7116 8.68849 10.637 8.86865 10.5042 9.00148C10.3714 9.13432 10.1912 9.20894 10.0034 9.20894Z" fill="#BCCBDC"/>
</g>
<defs>
<clipPath id="clip0_2694_5218">
<rect width="16" height="16" fill="white"/>
</clipPath>
</defs>
</svg>
